<svg width="117" height="90" viewBox="0 0 117 90" fill="none" xmlns="http://www.w3.org/2000/svg">
<path d="M88.784 18.0136C79.3214 29.1376 92.7163 53.8505 73.1841 76.8122C53.652 99.774 87.9349 87.5811 103.108 74.5C118.282 61.4189 116.24 32.9325 116.24 15.6166C105.116 6.15408 98.2466 6.88954 88.784 18.0136Z" fill="white"/>
<path d="M85.0063 15.6166C85.0063 6.9918 91.9981 0 100.623 0C109.248 0 116.24 6.9918 116.24 15.6166L116.24 29.8136C116.24 38.4384 109.248 45.4302 100.623 45.4302C91.9981 45.4302 85.0063 38.4384 85.0063 29.8136V15.6166Z" fill="white"/>
<path d="M49.5662 25.9907C41.8793 35.0273 52.7606 55.1027 36.8937 73.7556C21.0268 92.4085 46.7812 85.8692 60.1085 71.5C73.4357 57.1307 71.8698 38.11 71.8698 24.0435C62.8332 16.3566 57.2531 16.9541 49.5662 25.9907Z" fill="white"/>
<path d="M46.4978 24.0436C46.4978 17.0373 52.1776 11.3575 59.1839 11.3575C66.1903 11.3575 71.8698 17.0372 71.8698 24.0435L71.8701 35.5765C71.8701 42.5829 66.1903 48.2626 59.1839 48.2626C52.1776 48.2626 46.4978 42.5829 46.4978 35.5765V24.0436Z" fill="white"/>
<path d="M15.2293 31.9932C8.86411 39.476 17.8745 56.0996 4.73574 71.5453C-8.40297 86.991 8.55358 82.1282 22.1085 70C35.6633 57.8718 33.698 42.0287 33.698 30.3808C26.2152 24.0157 21.5945 24.5104 15.2293 31.9932Z" fill="white"/>
<path d="M12.6885 29.8757C12.6885 24.3529 17.1656 19.8757 22.6885 19.8757H23.6982C29.221 19.8757 33.6982 24.3529 33.6982 29.8757V40.4353C33.6982 45.9581 29.221 50.4353 23.6982 50.4353H22.6885C17.1656 50.4353 12.6885 45.9581 12.6885 40.4353V29.8757Z" fill="white"/>
</svg>
