<svg width="55" height="36" viewBox="0 0 55 36" fill="none" xmlns="http://www.w3.org/2000/svg">
<path d="M35.985 6.34416C32.6524 10.2619 37.3699 18.9655 30.4909 27.0523C23.6119 35.1392 39.7493 29.8321 43.0819 25.9144C46.3078 19.8928 45.6546 11.5984 45.6546 5.49998C41.7369 2.16737 39.3176 2.42639 35.985 6.34416Z" fill="#6666FA"/>
<rect x="34.6545" width="11" height="16" rx="5" fill="#6666FA"/>
<path d="M22.173 9.15361C19.4658 12.3362 23.298 19.4065 17.7099 25.9759C12.1218 32.5452 25.2309 28.234 27.9382 25.0514C30.5587 20.1598 30.0281 13.4219 30.0281 8.46785C26.8455 5.76062 24.8802 5.97103 22.173 9.15361Z" fill="#5E5EE4"/>
<rect x="21.0923" y="4" width="8.93582" height="12.9976" rx="4.46791" fill="#5E5EE4"/>
<path d="M10.0799 11.2676C7.8382 13.9029 11.0115 19.7576 6.38423 25.1974C1.75693 30.6372 12.6121 27.0672 14.8538 24.4319C17.0237 20.3813 16.5844 14.802 16.5844 10.6997C13.949 8.45798 12.3217 8.63222 10.0799 11.2676Z" fill="#5252D1"/>
<rect x="9.18506" y="7" width="7.39937" height="10.7627" rx="3.69969" fill="#5252D1"/>
</svg>
