<svg width="23" height="23" viewBox="0 0 23 23" fill="none" xmlns="http://www.w3.org/2000/svg">
<path d="M21.7228 2.36024L18.6986 5.39369C17.334 6.7675 14.946 6.7675 13.5722 5.39369L12.1338 3.95534C11.8111 3.63263 11.2487 3.63263 10.926 3.95534L7.63434 7.23773C6.95204 7.92003 6.03924 8.29806 5.07112 8.29806C4.103 8.29806 3.19019 7.92003 2.5079 7.23773L0.405689 5.1263C-0.129083 4.58231 -0.129083 3.70639 0.405689 3.17162C0.949682 2.62763 1.8256 2.63685 2.36037 3.17162L4.46258 5.28305C4.78529 5.60576 5.34772 5.60576 5.67043 5.28305L8.96205 2.00065C10.3266 0.636059 12.7147 0.636059 14.0885 2.00065L15.5268 3.439C15.8495 3.76171 16.412 3.76171 16.7347 3.439L19.7681 0.405553C20.3029 -0.13844 21.1788 -0.13844 21.7228 0.405553C22.2668 0.949546 22.2668 1.82547 21.7228 2.36024ZM5.99314 11.9861C5.22786 11.9861 4.61011 12.6039 4.61011 13.3692V20.7454C4.61011 21.5106 5.22786 22.1284 5.99314 22.1284C6.75842 22.1284 7.37617 21.5106 7.37617 20.7454V13.3692C7.37617 12.6039 6.75842 11.9861 5.99314 11.9861ZM1.38303 10.1421C0.617754 10.1421 0 10.7599 0 11.5251V20.7454C0 21.5106 0.617754 22.1284 1.38303 22.1284C2.14831 22.1284 2.76606 21.5106 2.76606 20.7454V11.5251C2.76606 10.7599 2.14831 10.1421 1.38303 10.1421ZM10.6032 8.29806C9.83797 8.29806 9.22021 8.91581 9.22021 9.68109V20.7454C9.22021 21.5106 9.83797 22.1284 10.6032 22.1284C11.3685 22.1284 11.9863 21.5106 11.9863 20.7454V9.68109C11.9863 8.91581 11.3685 8.29806 10.6032 8.29806ZM15.2134 10.1421C14.4481 10.1421 13.8303 10.7599 13.8303 11.5251V20.7454C13.8303 21.5106 14.4481 22.1284 15.2134 22.1284C15.9786 22.1284 16.5964 21.5106 16.5964 20.7454V11.5251C16.5964 10.7599 15.9786 10.1421 15.2134 10.1421ZM19.8235 7.37604C19.0582 7.37604 18.4404 7.99379 18.4404 8.75907V20.7454C18.4404 21.5106 19.0582 22.1284 19.8235 22.1284C20.5887 22.1284 21.2065 21.5106 21.2065 20.7454V8.75907C21.2065 7.99379 20.5887 7.37604 19.8235 7.37604Z" fill="currentColor"/>
</svg>
