<svg width="23" height="23" viewBox="0 0 23 23" fill="none" xmlns="http://www.w3.org/2000/svg">
<path d="M22.1285 11.0641C22.1285 17.1679 17.168 22.1284 11.0643 22.1284C4.96047 22.1284 0 17.1679 0 11.0641C0 4.96035 4.96047 -0.000125733 11.0643 -0.000125733C11.2394 -0.000125733 11.4146 -0.000125733 11.5898 0.00909448C12.3551 0.0459753 12.9452 0.69139 12.9083 1.45667C12.8714 2.22195 12.2444 2.7936 11.4607 2.77516C11.3316 2.77516 11.1933 2.76594 11.0643 2.76594C6.49103 2.76594 2.76606 6.49091 2.76606 11.0641C2.76606 15.6374 6.49103 19.3623 11.0643 19.3623C15.6375 19.3623 19.3624 15.6374 19.3624 11.0641C19.3624 10.935 19.3624 10.7967 19.3532 10.6677C19.3163 9.90239 19.9064 9.25697 20.6717 9.22009C21.4554 9.19243 22.0824 9.7733 22.1193 10.5386C22.1193 10.7138 22.1285 10.8889 22.1285 11.0641ZM10.0593 7.51435C10.7969 7.30228 11.221 6.54623 11.0182 5.80861C10.8153 5.07099 10.0408 4.64686 9.31242 4.84971C6.54635 5.63343 4.61933 8.18743 4.61933 11.0641C4.61933 14.6231 7.51447 17.5183 11.0735 17.5183C13.9502 17.5183 16.5042 15.5913 17.2879 12.8252C17.5 12.0876 17.0666 11.3223 16.329 11.1195C15.5914 10.9074 14.8261 11.3407 14.6233 12.0784C14.1807 13.655 12.7147 14.7614 11.0735 14.7614C9.03581 14.7614 7.38539 13.111 7.38539 11.0734C7.38539 9.43215 8.49182 7.96614 10.0685 7.52357L10.0593 7.51435ZM10.0869 10.0868C9.54292 10.6308 9.54292 11.5067 10.0869 12.0415C10.3543 12.3089 10.7139 12.4472 11.0643 12.4472C11.4146 12.4472 11.7742 12.3089 12.0416 12.0415L16.707 7.37605H18.9014C19.2702 7.37605 19.6206 7.22852 19.8788 6.97036L21.7228 5.12631C22.1193 4.72984 22.2392 4.13975 22.0271 3.62342C21.815 3.10709 21.3079 2.76594 20.7455 2.76594H19.3624V1.38291C19.3624 0.820473 19.0213 0.322582 18.505 0.101297C17.9886 -0.110768 17.3893 0.00909448 17.0021 0.405564L15.158 2.24961C14.8999 2.50777 14.7523 2.85814 14.7523 3.22695V5.42136L10.0869 10.0868Z" fill="currentColor"/>
</svg>
