<svg width="23" height="23" viewBox="0 0 23 23" fill="none" xmlns="http://www.w3.org/2000/svg">
<path d="M17.0574 1.84404H16.5964V1.38303C16.5964 0.618677 15.9768 0 15.2134 0C14.4499 0 13.8303 0.618677 13.8303 1.38303V1.84404H8.29819V1.38303C8.29819 0.618677 7.67859 0 6.91516 0C6.15173 0 5.53213 0.618677 5.53213 1.38303V1.84404H5.07112C2.27555 1.84404 0 4.11867 0 6.91516V17.0574C0 19.8539 2.27555 22.1285 5.07112 22.1285H17.0574C19.853 22.1285 22.1285 19.8539 22.1285 17.0574V6.91516C22.1285 4.11867 19.853 1.84404 17.0574 1.84404ZM17.0574 19.3625H5.07112C3.79965 19.3625 2.76606 18.3279 2.76606 17.0574V8.29819H19.3625V17.0574C19.3625 18.3279 18.3289 19.3625 17.0574 19.3625ZM17.5184 11.5253V12.4473C17.5184 13.2107 16.8988 13.8303 16.1354 13.8303H5.99314C5.22971 13.8303 4.61011 13.2107 4.61011 12.4473V11.5253C4.61011 10.7618 5.22971 10.1422 5.99314 10.1422H16.1354C16.8988 10.1422 17.5184 10.7618 17.5184 11.5253Z" fill="currentColor"/>
</svg>
