<svg width="23" height="23" viewBox="0 0 23 23" fill="none" xmlns="http://www.w3.org/2000/svg">
<path d="M17.0574 22.1285H5.07112C2.27555 22.1285 0 19.8529 0 17.0573V9.11505C0 7.42775 0.835351 5.85662 2.23498 4.91155L8.22812 0.867566C9.94953 -0.296025 12.1781 -0.296025 13.9013 0.867566L19.8935 4.91155C21.2932 5.8557 22.1285 7.42775 22.1285 9.11505V17.0573C22.1285 19.8529 19.853 22.1285 17.0574 22.1285ZM11.0643 2.76324C10.6162 2.76324 10.1662 2.89601 9.77619 3.16063L3.78213 7.2037C3.14686 7.63336 2.76606 8.347 2.76606 9.11413V17.0564C2.76606 18.3279 3.79965 19.3615 5.07112 19.3615H17.0574C18.3289 19.3615 19.3624 18.3279 19.3624 17.0564V9.11505C19.3624 8.34793 18.9826 7.63428 18.3464 7.20462L12.3532 3.16063C11.9614 2.89601 11.5124 2.76324 11.0643 2.76324Z" fill="currentColor"/>
</svg>
